<svg version="1" xmlns="http://www.w3.org/2000/svg" width="682.667" height="682.667" viewBox="0 0 512.000000 512.000000"><path d="M123 30.6c-8.9 3.9-11.3 9-11.8 26.1l-.4 13.3H97.5c-10.4 0-14.7.4-19.6 2C64 76.2 53.6 87.5 50 102.2c-.7 3-1 58.9-.8 177.3l.3 173 2.2 4.6c5.8 12.6 14.2 20.5 25.2 23.9 6.2 2 9.7 2 179.1 2 167.2 0 173-.1 178.9-1.9 12.4-3.9 23-15.2 26.5-28.3 1.6-5.8 1.7-20.5 1.4-178.8l-.3-172.5-3.4-6.9c-5.7-11.7-14.2-19.3-25.5-22.7-4.6-1.4-9.3-1.9-19.3-1.9H401V60c0-17.3-2.8-24.6-11-28.8-7.8-3.9-18-2.5-24.3 3.6-4.1 3.9-5.7 10.8-5.7 23.9V70H152V59.5c0-17.9-2.7-24.6-11.5-28.6-4.8-2.2-12.7-2.4-17.5-.3zm299 268.8c0 121.6-.1 126.6-1.9 130.8-2 4.8-6.7 9.3-11.8 11.5-4.8 2-299.8 2-304.6 0-4.9-2.1-9.8-6.7-11.8-11.2-1.8-3.8-1.9-9.9-1.9-130.8V173h332v126.4z"/><path d="M154.2 202.7c-2.3 1.5-4.9 4.2-5.7 5.9-1.6 3.3-1.9 10.5-.6 13.8.4 1 19.5 20.6 42.4 43.6 22.9 22.9 41.7 42.1 41.7 42.6s-18.9 19.8-41.9 42.9c-28.5 28.5-42.2 42.9-42.7 44.8-1 4.3.1 11.6 2.3 14.6 4.1 5.6 14 7.8 20.3 4.6 1.6-.8 21.4-20 43.8-42.5 22.5-22.6 41.3-41 41.7-41 .4 0 19.3 18.5 41.8 41.1 22.6 22.6 42.3 41.7 43.8 42.5 6.6 3.4 16.5.7 20.6-5.5 2.7-4 3.1-11.7.9-15.9-.8-1.5-19.9-21.1-42.5-43.7-22.6-22.5-41.1-41.4-41.1-41.8 0-.5 18.5-19.4 41.1-42 22.6-22.7 41.8-42.5 42.6-44.1 2.4-4.7 1.3-12.9-2.3-16.7-5.5-6-12.6-7.4-19.2-4-2 1.1-22.1 20.4-44.7 43l-41 41.1-42-42c-23.1-23-43.3-42.4-44.8-42.9-4.9-1.9-10-1.3-14.5 1.6z"/></svg>